<mxfile host="app.diagrams.net" modified="2022-02-02T15:37:16.593Z" agent="5.0 (Windows NT 10.0; Win64; x64) AppleWebKit/537.36 (KHTML, like Gecko) Chrome/97.0.4692.99 Safari/537.36" etag="Usb_HEEJccyQBfUihyc6" version="16.5.2" type="github">
  <diagram id="C5RBs43oDa-KdzZeNtuy" name="Page-1">
    <mxGraphModel dx="782" dy="428" grid="1" gridSize="10" guides="1" tooltips="1" connect="1" arrows="1" fold="1" page="1" pageScale="1" pageWidth="827" pageHeight="1169" math="0" shadow="0">
      <root>
        <mxCell id="WIyWlLk6GJQsqaUBKTNV-0" />
        <mxCell id="WIyWlLk6GJQsqaUBKTNV-1" parent="WIyWlLk6GJQsqaUBKTNV-0" />
        <mxCell id="XCNdL-JKAY-SuCFK0u7Y-1" style="edgeStyle=orthogonalEdgeStyle;rounded=0;orthogonalLoop=1;jettySize=auto;html=1;exitX=0.5;exitY=1;exitDx=0;exitDy=0;entryX=0.5;entryY=0;entryDx=0;entryDy=0;" edge="1" parent="WIyWlLk6GJQsqaUBKTNV-1" source="WIyWlLk6GJQsqaUBKTNV-3" target="XCNdL-JKAY-SuCFK0u7Y-20">
          <mxGeometry relative="1" as="geometry" />
        </mxCell>
        <mxCell id="WIyWlLk6GJQsqaUBKTNV-3" value="Send Connect" style="rounded=1;whiteSpace=wrap;html=1;fontSize=12;glass=0;strokeWidth=1;shadow=0;" parent="WIyWlLk6GJQsqaUBKTNV-1" vertex="1">
          <mxGeometry x="160" y="20" width="120" height="40" as="geometry" />
        </mxCell>
        <mxCell id="XCNdL-JKAY-SuCFK0u7Y-3" style="edgeStyle=orthogonalEdgeStyle;rounded=0;orthogonalLoop=1;jettySize=auto;html=1;exitX=0.5;exitY=1;exitDx=0;exitDy=0;" edge="1" parent="WIyWlLk6GJQsqaUBKTNV-1" source="XCNdL-JKAY-SuCFK0u7Y-0" target="XCNdL-JKAY-SuCFK0u7Y-2">
          <mxGeometry relative="1" as="geometry" />
        </mxCell>
        <mxCell id="XCNdL-JKAY-SuCFK0u7Y-10" value="" style="edgeStyle=orthogonalEdgeStyle;rounded=0;orthogonalLoop=1;jettySize=auto;html=1;entryX=0.5;entryY=0;entryDx=0;entryDy=0;" edge="1" parent="WIyWlLk6GJQsqaUBKTNV-1" source="XCNdL-JKAY-SuCFK0u7Y-0" target="XCNdL-JKAY-SuCFK0u7Y-6">
          <mxGeometry relative="1" as="geometry" />
        </mxCell>
        <mxCell id="XCNdL-JKAY-SuCFK0u7Y-0" value="wgetch()==&#39;q&#39;" style="rhombus;whiteSpace=wrap;html=1;" vertex="1" parent="WIyWlLk6GJQsqaUBKTNV-1">
          <mxGeometry x="175" y="180" width="90" height="90" as="geometry" />
        </mxCell>
        <mxCell id="XCNdL-JKAY-SuCFK0u7Y-5" style="edgeStyle=orthogonalEdgeStyle;rounded=0;orthogonalLoop=1;jettySize=auto;html=1;exitX=0.5;exitY=1;exitDx=0;exitDy=0;entryX=0.5;entryY=0;entryDx=0;entryDy=0;" edge="1" parent="WIyWlLk6GJQsqaUBKTNV-1" source="XCNdL-JKAY-SuCFK0u7Y-2" target="XCNdL-JKAY-SuCFK0u7Y-4">
          <mxGeometry relative="1" as="geometry" />
        </mxCell>
        <mxCell id="XCNdL-JKAY-SuCFK0u7Y-2" value="Send Disconnect" style="rounded=0;whiteSpace=wrap;html=1;" vertex="1" parent="WIyWlLk6GJQsqaUBKTNV-1">
          <mxGeometry x="160" y="330" width="120" height="40" as="geometry" />
        </mxCell>
        <mxCell id="XCNdL-JKAY-SuCFK0u7Y-4" value="exit" style="rounded=1;whiteSpace=wrap;html=1;" vertex="1" parent="WIyWlLk6GJQsqaUBKTNV-1">
          <mxGeometry x="160" y="430" width="120" height="40" as="geometry" />
        </mxCell>
        <mxCell id="XCNdL-JKAY-SuCFK0u7Y-14" style="edgeStyle=orthogonalEdgeStyle;rounded=0;orthogonalLoop=1;jettySize=auto;html=1;exitX=0.5;exitY=1;exitDx=0;exitDy=0;entryX=0.5;entryY=0;entryDx=0;entryDy=0;" edge="1" parent="WIyWlLk6GJQsqaUBKTNV-1" source="XCNdL-JKAY-SuCFK0u7Y-6" target="XCNdL-JKAY-SuCFK0u7Y-13">
          <mxGeometry relative="1" as="geometry" />
        </mxCell>
        <mxCell id="XCNdL-JKAY-SuCFK0u7Y-6" value="Send Paddle_move" style="rounded=0;whiteSpace=wrap;html=1;" vertex="1" parent="WIyWlLk6GJQsqaUBKTNV-1">
          <mxGeometry x="380" y="260" width="120" height="40" as="geometry" />
        </mxCell>
        <mxCell id="XCNdL-JKAY-SuCFK0u7Y-8" value="If condition is true" style="text;html=1;strokeColor=none;fillColor=none;align=center;verticalAlign=middle;whiteSpace=wrap;rounded=0;" vertex="1" parent="WIyWlLk6GJQsqaUBKTNV-1">
          <mxGeometry x="140" y="280" width="80" height="30" as="geometry" />
        </mxCell>
        <mxCell id="XCNdL-JKAY-SuCFK0u7Y-11" value="else" style="text;html=1;strokeColor=none;fillColor=none;align=center;verticalAlign=middle;whiteSpace=wrap;rounded=0;" vertex="1" parent="WIyWlLk6GJQsqaUBKTNV-1">
          <mxGeometry x="340" y="200" width="60" height="30" as="geometry" />
        </mxCell>
        <mxCell id="XCNdL-JKAY-SuCFK0u7Y-16" style="edgeStyle=orthogonalEdgeStyle;rounded=0;orthogonalLoop=1;jettySize=auto;html=1;exitX=0.5;exitY=1;exitDx=0;exitDy=0;" edge="1" parent="WIyWlLk6GJQsqaUBKTNV-1" source="XCNdL-JKAY-SuCFK0u7Y-13" target="XCNdL-JKAY-SuCFK0u7Y-15">
          <mxGeometry relative="1" as="geometry" />
        </mxCell>
        <mxCell id="XCNdL-JKAY-SuCFK0u7Y-13" value="Recv Board_update" style="rounded=0;whiteSpace=wrap;html=1;" vertex="1" parent="WIyWlLk6GJQsqaUBKTNV-1">
          <mxGeometry x="380" y="330" width="120" height="40" as="geometry" />
        </mxCell>
        <mxCell id="XCNdL-JKAY-SuCFK0u7Y-17" style="edgeStyle=orthogonalEdgeStyle;rounded=0;orthogonalLoop=1;jettySize=auto;html=1;exitX=0;exitY=0.5;exitDx=0;exitDy=0;entryX=1;entryY=0.5;entryDx=0;entryDy=0;" edge="1" parent="WIyWlLk6GJQsqaUBKTNV-1" source="XCNdL-JKAY-SuCFK0u7Y-15" target="XCNdL-JKAY-SuCFK0u7Y-4">
          <mxGeometry relative="1" as="geometry" />
        </mxCell>
        <mxCell id="XCNdL-JKAY-SuCFK0u7Y-22" style="edgeStyle=orthogonalEdgeStyle;rounded=0;orthogonalLoop=1;jettySize=auto;html=1;exitX=1;exitY=0.5;exitDx=0;exitDy=0;entryX=1;entryY=0.5;entryDx=0;entryDy=0;" edge="1" parent="WIyWlLk6GJQsqaUBKTNV-1" source="XCNdL-JKAY-SuCFK0u7Y-15" target="XCNdL-JKAY-SuCFK0u7Y-20">
          <mxGeometry relative="1" as="geometry">
            <Array as="points">
              <mxPoint x="570" y="450" />
              <mxPoint x="570" y="120" />
            </Array>
          </mxGeometry>
        </mxCell>
        <mxCell id="XCNdL-JKAY-SuCFK0u7Y-15" value="Valid?" style="rhombus;whiteSpace=wrap;html=1;" vertex="1" parent="WIyWlLk6GJQsqaUBKTNV-1">
          <mxGeometry x="396.25" y="407.5" width="87.5" height="85" as="geometry" />
        </mxCell>
        <mxCell id="XCNdL-JKAY-SuCFK0u7Y-18" value="If condition is true" style="text;html=1;strokeColor=none;fillColor=none;align=center;verticalAlign=middle;whiteSpace=wrap;rounded=0;" vertex="1" parent="WIyWlLk6GJQsqaUBKTNV-1">
          <mxGeometry x="310" y="420" width="80" height="30" as="geometry" />
        </mxCell>
        <mxCell id="XCNdL-JKAY-SuCFK0u7Y-21" style="edgeStyle=orthogonalEdgeStyle;rounded=0;orthogonalLoop=1;jettySize=auto;html=1;exitX=0.5;exitY=1;exitDx=0;exitDy=0;entryX=0.5;entryY=0;entryDx=0;entryDy=0;" edge="1" parent="WIyWlLk6GJQsqaUBKTNV-1" source="XCNdL-JKAY-SuCFK0u7Y-20" target="XCNdL-JKAY-SuCFK0u7Y-0">
          <mxGeometry relative="1" as="geometry" />
        </mxCell>
        <mxCell id="XCNdL-JKAY-SuCFK0u7Y-20" value="&lt;span&gt;Keyboard Input&lt;/span&gt;" style="rounded=0;whiteSpace=wrap;html=1;" vertex="1" parent="WIyWlLk6GJQsqaUBKTNV-1">
          <mxGeometry x="160" y="100" width="120" height="40" as="geometry" />
        </mxCell>
        <mxCell id="XCNdL-JKAY-SuCFK0u7Y-23" value="else" style="text;html=1;strokeColor=none;fillColor=none;align=center;verticalAlign=middle;whiteSpace=wrap;rounded=0;" vertex="1" parent="WIyWlLk6GJQsqaUBKTNV-1">
          <mxGeometry x="500" y="420" width="60" height="30" as="geometry" />
        </mxCell>
      </root>
    </mxGraphModel>
  </diagram>
</mxfile>
